{
    "asset" : {
        "generator" : "Khronos glTF Blender I/O v1.5.17",
        "version" : "2.0"
    },
    "scene" : 0,
    "scenes" : [
        {
            "name" : "Scene",
            "nodes" : [
                0
            ]
        }
    ],
    "nodes" : [
        {
            "mesh" : 0,
            "name" : "CanEnergyDrink.010",
            "rotation" : [
                0,
                0.9998680353164673,
                0,
                0.016251759603619576
            ],
            "scale" : [
                23.626142501831055,
                23.626142501831055,
                23.626142501831055
            ],
            "translation" : [
                0.0028221160173416138,
                0.002657979726791382,
                -0.0001239776611328125
            ]
        }
    ],
    "materials" : [
        {
            "doubleSided" : true,
            "name" : "CanMat",
            "normalTexture" : {
                "index" : 0
            },
            "pbrMetallicRoughness" : {
                "baseColorTexture" : {
                    "index" : 1
                },
                "metallicFactor" : 0.24545453488826752,
                "metallicRoughnessTexture" : {
                    "index" : 2
                }
            }
        },
        {
            "doubleSided" : true,
            "name" : "Material.011",
            "pbrMetallicRoughness" : {
                "baseColorTexture" : {
                    "index" : 3
                },
                "metallicFactor" : 0,
                "roughnessFactor" : 0.5
            }
        }
    ],
    "meshes" : [
        {
            "name" : "Cylinder.037",
            "primitives" : [
                {
                    "attributes" : {
                        "POSITION" : 0,
                        "NORMAL" : 1,
                        "TEXCOORD_0" : 2
                    },
                    "indices" : 3,
                    "material" : 0
                },
                {
                    "attributes" : {
                        "POSITION" : 4,
                        "NORMAL" : 5,
                        "TEXCOORD_0" : 6
                    },
                    "indices" : 7,
                    "material" : 1
                }
            ]
        }
    ],
    "textures" : [
        {
            "sampler" : 0,
            "source" : 0
        },
        {
            "sampler" : 0,
            "source" : 1
        },
        {
            "sampler" : 0,
            "source" : 2
        },
        {
            "sampler" : 0,
            "source" : 3
        }
    ],
    "images" : [
        {
            "bufferView" : 4,
            "mimeType" : "image/jpeg",
            "name" : "CanMat_Normal_OpenGL"
        },
        {
            "bufferView" : 5,
            "mimeType" : "image/jpeg",
            "name" : "CanMat_Base_Color"
        },
        {
            "bufferView" : 6,
            "mimeType" : "image/png",
            "name" : "CanMat_Roughness"
        },
        {
            "bufferView" : 11,
            "mimeType" : "image/png",
            "name" : "lime"
        }
    ],
    "accessors" : [
        {
            "bufferView" : 0,
            "componentType" : 5126,
            "count" : 2727,
            "max" : [
                0.03267417103052139,
                0.14836068451404572,
                0.03267418593168259
            ],
            "min" : [
                -0.03267418220639229,
                2.453662550916391e-10,
                -0.03267417103052139
            ],
            "type" : "VEC3"
        },
        {
            "bufferView" : 1,
            "componentType" : 5126,
            "count" : 2727,
            "type" : "VEC3"
        },
        {
            "bufferView" : 2,
            "componentType" : 5126,
            "count" : 2727,
            "type" : "VEC2"
        },
        {
            "bufferView" : 3,
            "componentType" : 5123,
            "count" : 15348,
            "type" : "SCALAR"
        },
        {
            "bufferView" : 7,
            "componentType" : 5126,
            "count" : 72,
            "max" : [
                0.03279802203178406,
                0.133876234292984,
                0.03279803693294525
            ],
            "min" : [
                -0.03279803320765495,
                0.009359791874885559,
                -0.03279802203178406
            ],
            "type" : "VEC3"
        },
        {
            "bufferView" : 8,
            "componentType" : 5126,
            "count" : 72,
            "type" : "VEC3"
        },
        {
            "bufferView" : 9,
            "componentType" : 5126,
            "count" : 72,
            "type" : "VEC2"
        },
        {
            "bufferView" : 10,
            "componentType" : 5123,
            "count" : 192,
            "type" : "SCALAR"
        }
    ],
    "bufferViews" : [
        {
            "buffer" : 0,
            "byteLength" : 32724,
            "byteOffset" : 0
        },
        {
            "buffer" : 0,
            "byteLength" : 32724,
            "byteOffset" : 32724
        },
        {
            "buffer" : 0,
            "byteLength" : 21816,
            "byteOffset" : 65448
        },
        {
            "buffer" : 0,
            "byteLength" : 30696,
            "byteOffset" : 87264
        },
        {
            "buffer" : 0,
            "byteLength" : 106899,
            "byteOffset" : 117960
        },
        {
            "buffer" : 0,
            "byteLength" : 110428,
            "byteOffset" : 224860
        },
        {
            "buffer" : 0,
            "byteLength" : 582132,
            "byteOffset" : 335288
        },
        {
            "buffer" : 0,
            "byteLength" : 864,
            "byteOffset" : 917420
        },
        {
            "buffer" : 0,
            "byteLength" : 864,
            "byteOffset" : 918284
        },
        {
            "buffer" : 0,
            "byteLength" : 576,
            "byteOffset" : 919148
        },
        {
            "buffer" : 0,
            "byteLength" : 384,
            "byteOffset" : 919724
        },
        {
            "buffer" : 0,
            "byteLength" : 197477,
            "byteOffset" : 920108
        }
    ],
    "samplers" : [
        {
            "magFilter" : 9729,
            "minFilter" : 9987
        }
    ],
    "buffers" : [
        {
            "byteLength" : 1117588,
            "uri" : "data:application/octet-stream;base64,"
        }
    ]
}
