{"extensionsUsed" : ["KHR_materials_specular", "KHR_materials_ior"], "accessors" : [{"bufferView" : 0, "byteOffset" : 0, "componentType" : 5123, "count" : 3552, "type" : "SCALAR", "max" : [2823], "min" : [0]}, {"bufferView" : 1, "byteOffset" : 0, "componentType" : 5126, "count" : 2824, "type" : "VEC3", "max" : [0.8818217515945435, 1.114632248878479, 3.8267014026641846], "min" : [-0.9890943765640259, -0.6063663363456726, -1.0806609392166138], "name" : "POSITION"}, {"bufferView" : 1, "byteOffset" : 12, "componentType" : 5126, "count" : 2824, "type" : "VEC2", "max" : [0.7878240346908569, 1], "min" : [0, 0.4375], "name" : "TEXCOORD_0"}, {"bufferView" : 1, "byteOffset" : 20, "componentType" : 5126, "count" : 2824, "type" : "VEC3", "max" : [1.0000039339065552, 1.0000044107437134, 0.9827357530593872], "min" : [-0.9998348355293274, -1.0000044107437134, -0.9827357530593872], "name" : "NORMAL"}, {"bufferView" : 0, "byteOffset" : 7104, "componentType" : 5123, "count" : 528, "type" : "SCALAR", "max" : [422], "min" : [0]}, {"bufferView" : 2, "byteOffset" : 0, "componentType" : 5126, "count" : 423, "type" : "VEC3", "max" : [-0.0294608473777771, 4.948439598083496, 2.4607017040252686], "min" : [-0.6198272109031677, 0.21460342407226562, -0.4403184652328491], "name" : "POSITION"}, {"bufferView" : 2, "byteOffset" : 12, "componentType" : 5126, "count" : 423, "type" : "VEC2", "max" : [0.8002937436103821, 1], "min" : [0.125, 0], "name" : "TEXCOORD_0"}, {"bufferView" : 2, "byteOffset" : 20, "componentType" : 5126, "count" : 423, "type" : "VEC3", "max" : [0.9987757205963135, 0.6581428050994873, 0.9873524904251099], "min" : [-0.9987513422966003, -0.7727605700492859, -0.9885156154632568], "name" : "NORMAL"}, {"bufferView" : 0, "byteOffset" : 8160, "componentType" : 5123, "count" : 96, "type" : "SCALAR", "max" : [83], "min" : [0]}, {"bufferView" : 3, "byteOffset" : 0, "componentType" : 5126, "count" : 84, "type" : "VEC3", "max" : [0.170708566904068, 10.367768287658691, 2.554563283920288], "min" : [-0.8756078481674194, 7.962220191955566, -0.568901538848877], "name" : "POSITION"}, {"bufferView" : 3, "byteOffset" : 12, "componentType" : 5126, "count" : 84, "type" : "VEC2", "max" : [0.9445409774780273, 0.9383813738822937], "min" : [0.1952487677335739, 0.11475515365600586], "name" : "TEXCOORD_0"}, {"bufferView" : 3, "byteOffset" : 20, "componentType" : 5126, "count" : 84, "type" : "VEC3", "max" : [0.9951828718185425, 0.1616027057170868, 0.9901865720748901], "min" : [-0.9998170733451843, -0.8519022464752197, -0.9084891080856323], "name" : "NORMAL"}, {"bufferView" : 0, "byteOffset" : 8352, "componentType" : 5123, "count" : 192, "type" : "SCALAR", "max" : [169], "min" : [0]}, {"bufferView" : 4, "byteOffset" : 0, "componentType" : 5126, "count" : 170, "type" : "VEC3", "max" : [0.2051040232181549, 13.30897331237793, 2.646599054336548], "min" : [-0.9084293842315674, 7.95958137512207, -0.6660146713256836], "name" : "POSITION"}, {"bufferView" : 4, "byteOffset" : 12, "componentType" : 5126, "count" : 170, "type" : "VEC2", "max" : [0.9445409774780273, 0.9383813738822937], "min" : [0.06967824697494507, 0.11475515365600586], "name" : "TEXCOORD_0"}, {"bufferView" : 4, "byteOffset" : 20, "componentType" : 5126, "count" : 170, "type" : "VEC3", "max" : [0.9997986555099487, 0.9902083277702332, 0.9901865720748901], "min" : [-0.9953674674034119, -0.9911943674087524, -0.9897848963737488], "name" : "NORMAL"}, {"bufferView" : 0, "byteOffset" : 8736, "componentType" : 5123, "count" : 510, "type" : "SCALAR", "max" : [430], "min" : [0]}, {"bufferView" : 5, "byteOffset" : 0, "componentType" : 5126, "count" : 431, "type" : "VEC3", "max" : [0.7770674228668213, 8.626145362854004, 7.322535991668701], "min" : [-1.2929859161376953, 2.6710658073425293, -5.383170127868652], "name" : "POSITION"}, {"bufferView" : 5, "byteOffset" : 12, "componentType" : 5126, "count" : 431, "type" : "VEC2", "max" : [0.9737095236778259, 0.9598187208175659], "min" : [0.07831943035125732, 0.01677495241165161], "name" : "TEXCOORD_0"}, {"bufferView" : 5, "byteOffset" : 20, "componentType" : 5126, "count" : 431, "type" : "VEC3", "max" : [0.9947019219398499, 0.9799575209617615, 0.8967646956443787], "min" : [-0.9985043406486511, -0.9993639588356018, -0.9113402962684631], "name" : "NORMAL"}, {"bufferView" : 0, "byteOffset" : 9756, "componentType" : 5123, "count" : 426, "type" : "SCALAR", "max" : [359], "min" : [0]}, {"bufferView" : 6, "byteOffset" : 0, "componentType" : 5126, "count" : 360, "type" : "VEC3", "max" : [0.5290952920913696, 8.702122688293457, 7.403548240661621], "min" : [-1.319828748703003, 2.607804298400879, -5.453510761260986], "name" : "POSITION"}, {"bufferView" : 6, "byteOffset" : 12, "componentType" : 5126, "count" : 360, "type" : "VEC2", "max" : [0.9737095236778259, 0.9598187208175659], "min" : [0.07831943035125732, 0.02650398015975952], "name" : "TEXCOORD_0"}, {"bufferView" : 6, "byteOffset" : 20, "componentType" : 5126, "count" : 360, "type" : "VEC3", "max" : [0.9985305070877075, 0.9997341632843018, 0.9132795929908752], "min" : [-0.9946766495704651, -0.983968198299408, -0.8101541996002197], "name" : "NORMAL"}, {"bufferView" : 0, "byteOffset" : 10608, "componentType" : 5123, "count" : 2520, "type" : "SCALAR", "max" : [2060], "min" : [0]}, {"bufferView" : 7, "byteOffset" : 0, "componentType" : 5126, "count" : 2061, "type" : "VEC3", "max" : [0.4781155288219452, 10.604766845703125, 3.188380718231201], "min" : [-1.0152946710586548, 8.83936595916748, -0.8820257186889648], "name" : "POSITION"}, {"bufferView" : 7, "byteOffset" : 12, "componentType" : 5126, "count" : 2061, "type" : "VEC2", "max" : [0.9545263051986694, 0.9613984227180481], "min" : [0.041033610701560974, 0.05725067853927612], "name" : "TEXCOORD_0"}, {"bufferView" : 7, "byteOffset" : 20, "componentType" : 5126, "count" : 2061, "type" : "VEC3", "max" : [0.9997383952140808, 0.9891033172607422, 0.9904639720916748], "min" : [-0.9986766576766968, -0.9975992441177368, -0.9933952689170837], "name" : "NORMAL"}, {"bufferView" : 0, "byteOffset" : 15648, "componentType" : 5123, "count" : 1512, "type" : "SCALAR", "max" : [1233], "min" : [0]}, {"bufferView" : 8, "byteOffset" : 0, "componentType" : 5126, "count" : 1234, "type" : "VEC3", "max" : [-0.5260513424873352, 11.516654014587402, 3.478982448577881], "min" : [-1.6665761470794678, 4.0120038986206055, -6.083603382110596], "name" : "POSITION"}, {"bufferView" : 8, "byteOffset" : 12, "componentType" : 5126, "count" : 1234, "type" : "VEC2", "max" : [0.9660065770149231, 1], "min" : [0, 0.043884217739105225], "name" : "TEXCOORD_0"}, {"bufferView" : 8, "byteOffset" : 20, "componentType" : 5126, "count" : 1234, "type" : "VEC3", "max" : [0.9988906383514404, 0.9986914992332458, 0.9974039793014526], "min" : [-0.9997421503067017, -0.9987114071846008, -0.9960217475891113], "name" : "NORMAL"}], "asset" : {"generator" : "Aspose.3D 23.4.0", "version" : "2.0"}, "buffers" : [{"uri" : "data:application/octet-stream;base64,", "byteLength" : 317460}], "bufferViews" : [{"buffer" : 0, "byteOffset" : 0, "byteLength" : 18672, "target" : 34963}, {"buffer" : 0, "byteOffset" : 18676, "byteLength" : 113664, "byteStride" : 32, "target" : 34962}, {"buffer" : 0, "byteOffset" : 132344, "byteLength" : 16896, "byteStride" : 32, "target" : 34962}, {"buffer" : 0, "byteOffset" : 149244, "byteLength" : 3072, "byteStride" : 32, "target" : 34962}, {"buffer" : 0, "byteOffset" : 152320, "byteLength" : 6144, "byteStride" : 32, "target" : 34962}, {"buffer" : 0, "byteOffset" : 158468, "byteLength" : 16320, "byteStride" : 32, "target" : 34962}, {"buffer" : 0, "byteOffset" : 174792, "byteLength" : 13632, "byteStride" : 32, "target" : 34962}, {"buffer" : 0, "byteOffset" : 188428, "byteLength" : 80640, "byteStride" : 32, "target" : 34962}, {"buffer" : 0, "byteOffset" : 269072, "byteLength" : 48384, "byteStride" : 32, "target" : 34962}], "images" : [{"uri" : "data:image/png;base64,"}, {"uri" : "data:image/png;base64,"}, {"uri" : "data:image/png;base64,"}, {"uri" : "data:image/png;base64,"}, {"uri" : "data:image/png;base64,"}, {"uri" : "data:image/png;base64,"}, {"uri" : "data:image/png;base64,"}], "materials" : [{"name" : "socks n shoes", "extensions" : {"KHR_materials_specular" : {"specularColorFactor" : [0, 0, 0]}, "KHR_materials_ior" : {"ior" : 1.4500000476837158}}, "pbrMetallicRoughness" : {"baseColorFactor" : [1, 1, 1, 1], "baseColorTexture" : {"index" : 0, "texCoord" : 0}, "metallicFactor" : 0, "roughnessFactor" : 1}, "emissiveFactor" : [0, 0, 0], "alphaMode" : "OPAQUE", "doubleSided" : true}, {"name" : "skin", "extensions" : {"KHR_materials_specular" : {"specularColorFactor" : [0, 0, 0]}, "KHR_materials_ior" : {"ior" : 1.4500000476837158}}, "pbrMetallicRoughness" : {"baseColorFactor" : [0.800000011920929, 0.800000011920929, 0.800000011920929, 1], "metallicFactor" : 0, "roughnessFactor" : 1}, "emissiveFactor" : [0, 0, 0], "alphaMode" : "OPAQUE", "doubleSided" : true}, {"name" : "face", "extensions" : {"KHR_materials_specular" : {"specularColorFactor" : [0, 0, 0]}, "KHR_materials_ior" : {"ior" : 1.4500000476837158}}, "pbrMetallicRoughness" : {"baseColorFactor" : [1, 1, 1, 1], "baseColorTexture" : {"index" : 1, "texCoord" : 0}, "metallicFactor" : 0, "roughnessFactor" : 1}, "emissiveFactor" : [0, 0, 0], "alphaMode" : "OPAQUE", "doubleSided" : true}, {"name" : "ears", "extensions" : {"KHR_materials_specular" : {"specularColorFactor" : [0, 0, 0]}, "KHR_materials_ior" : {"ior" : 1.4500000476837158}}, "pbrMetallicRoughness" : {"baseColorFactor" : [1, 1, 1, 1], "baseColorTexture" : {"index" : 2, "texCoord" : 0}, "metallicFactor" : 0, "roughnessFactor" : 1}, "emissiveFactor" : [0, 0, 0], "alphaMode" : "OPAQUE", "doubleSided" : true}, {"name" : "jacket", "extensions" : {"KHR_materials_specular" : {"specularColorFactor" : [0, 0, 0]}, "KHR_materials_ior" : {"ior" : 1.4500000476837158}}, "pbrMetallicRoughness" : {"baseColorFactor" : [1, 1, 1, 1], "baseColorTexture" : {"index" : 3, "texCoord" : 0}, "metallicFactor" : 0, "roughnessFactor" : 0.5}, "emissiveFactor" : [0, 0, 0], "alphaMode" : "OPAQUE", "doubleSided" : true}, {"name" : "design on jacket", "extensions" : {"KHR_materials_specular" : {"specularColorFactor" : [0, 0, 0]}, "KHR_materials_ior" : {"ior" : 1.4500000476837158}}, "pbrMetallicRoughness" : {"baseColorFactor" : [1, 1, 1, 1], "baseColorTexture" : {"index" : 4, "texCoord" : 0}, "metallicFactor" : 0, "roughnessFactor" : 1}, "emissiveFactor" : [0, 0, 0], "alphaMode" : "OPAQUE", "doubleSided" : true}, {"name" : "Material.008", "extensions" : {"KHR_materials_specular" : {"specularColorFactor" : [0, 0, 0]}, "KHR_materials_ior" : {"ior" : 1.4500000476837158}}, "pbrMetallicRoughness" : {"baseColorFactor" : [1, 1, 1, 1], "baseColorTexture" : {"index" : 5, "texCoord" : 0}, "metallicFactor" : 0, "roughnessFactor" : 1}, "emissiveFactor" : [0, 0, 0], "alphaMode" : "OPAQUE", "doubleSided" : true}, {"name" : "Material.033", "extensions" : {"KHR_materials_specular" : {"specularColorFactor" : [0, 0, 0]}, "KHR_materials_ior" : {"ior" : 1.4500000476837158}}, "pbrMetallicRoughness" : {"baseColorFactor" : [1, 1, 1, 1], "baseColorTexture" : {"index" : 6, "texCoord" : 0}, "metallicFactor" : 0, "roughnessFactor" : 1}, "emissiveFactor" : [0, 0, 0], "alphaMode" : "OPAQUE", "doubleSided" : true}], "meshes" : [{"primitives" : [{"attributes" : {"POSITION" : 1, "TEXCOORD_0" : 2, "NORMAL" : 3}, "indices" : 0, "material" : 0, "mode" : 4}, {"attributes" : {"POSITION" : 5, "TEXCOORD_0" : 6, "NORMAL" : 7}, "indices" : 4, "material" : 1, "mode" : 4}, {"attributes" : {"POSITION" : 9, "TEXCOORD_0" : 10, "NORMAL" : 11}, "indices" : 8, "material" : 2, "mode" : 4}, {"attributes" : {"POSITION" : 13, "TEXCOORD_0" : 14, "NORMAL" : 15}, "indices" : 12, "material" : 3, "mode" : 4}, {"attributes" : {"POSITION" : 17, "TEXCOORD_0" : 18, "NORMAL" : 19}, "indices" : 16, "material" : 4, "mode" : 4}, {"attributes" : {"POSITION" : 21, "TEXCOORD_0" : 22, "NORMAL" : 23}, "indices" : 20, "material" : 5, "mode" : 4}, {"attributes" : {"POSITION" : 25, "TEXCOORD_0" : 26, "NORMAL" : 27}, "indices" : 24, "material" : 6, "mode" : 4}, {"attributes" : {"POSITION" : 29, "TEXCOORD_0" : 30, "NORMAL" : 31}, "indices" : 28, "material" : 7, "mode" : 4}]}], "nodes" : [{"matrix" : [0.26370766524106826, 0, 0.3194698979946904, 0, 0, 0.15020446130897155, 0, 0, 0.11583790659599098, 0, -0.09561885235414987, 0, -16.55269432067871, 78.18095397949219, -37.24718475341797, 1], "mesh" : 0, "name" : "Cube.174"}], "samplers" : [{"magFilter" : 9728, "minFilter" : 9984, "wrapS" : 10497, "wrapT" : 10497}, {"magFilter" : 9728, "minFilter" : 9984, "wrapS" : 10497, "wrapT" : 10497}, {"magFilter" : 9728, "minFilter" : 9984, "wrapS" : 10497, "wrapT" : 10497}, {"magFilter" : 9728, "minFilter" : 9984, "wrapS" : 10497, "wrapT" : 10497}, {"magFilter" : 9728, "minFilter" : 9984, "wrapS" : 10497, "wrapT" : 10497}, {"magFilter" : 9728, "minFilter" : 9984, "wrapS" : 10497, "wrapT" : 10497}, {"magFilter" : 9728, "minFilter" : 9984, "wrapS" : 10497, "wrapT" : 10497}], "scene" : 0, "scenes" : [{"nodes" : [0]}], "textures" : [{"sampler" : 0, "source" : 0, "name" : ""}, {"sampler" : 1, "source" : 1, "name" : ""}, {"sampler" : 2, "source" : 2, "name" : ""}, {"sampler" : 3, "source" : 3, "name" : ""}, {"sampler" : 4, "source" : 4, "name" : ""}, {"sampler" : 5, "source" : 5, "name" : ""}, {"sampler" : 6, "source" : 6, "name" : ""}]}