{
    "asset" : {
        "generator" : "Khronos glTF Blender I/O v3.4.50",
        "version" : "2.0"
    },
    "extensionsUsed" : [
        "KHR_materials_specular",
        "KHR_materials_ior",
        "KHR_materials_transmission"
    ],
    "scene" : 0,
    "scenes" : [
        {
            "name" : "Scene",
            "nodes" : [
                0
            ]
        }
    ],
    "nodes" : [
        {
            "mesh" : 0,
            "name" : "CanEnergyDrink.032",
            "rotation" : [
                0.045181259512901306,
                0.00047923720558173954,
                0.019765466451644897,
                0.9987831711769104
            ],
            "scale" : [
                27.892507553100586,
                27.89250946044922,
                27.892507553100586
            ],
            "translation" : [
                -0.3595096468925476,
                7.331362247467041,
                1.8308066129684448
            ]
        }
    ],
    "materials" : [
        {
            "doubleSided" : true,
            "extensions" : {
                "KHR_materials_specular" : {
                    "specularColorFactor" : [
                        1.42281462520241,
                        1.42281462520241,
                        1.42281462520241
                    ]
                },
                "KHR_materials_ior" : {
                    "ior" : 1.4500000476837158
                }
            },
            "name" : "CanMat.001",
            "pbrMetallicRoughness" : {
                "baseColorTexture" : {
                    "index" : 0
                },
                "metallicFactor" : 0.7545455098152161,
                "roughnessFactor" : 0.18409092724323273
            }
        },
        {
            "doubleSided" : true,
            "extensions" : {
                "KHR_materials_specular" : {
                    "specularColorFactor" : [
                        0,
                        0,
                        0
                    ]
                },
                "KHR_materials_ior" : {
                    "ior" : 1.4500000476837158
                }
            },
            "name" : "Material.015",
            "pbrMetallicRoughness" : {
                "baseColorTexture" : {
                    "index" : 1
                },
                "metallicFactor" : 0
            }
        },
        {
            "alphaMode" : "BLEND",
            "doubleSided" : true,
            "extensions" : {
                "KHR_materials_transmission" : {
                    "transmissionFactor" : 1
                },
                "KHR_materials_specular" : {
                    "specularColorFactor" : [
                        1,
                        1,
                        1
                    ]
                },
                "KHR_materials_ior" : {
                    "ior" : 1.4500000476837158
                }
            },
            "name" : "Weathered Glass.002",
            "pbrMetallicRoughness" : {
                "baseColorFactor" : [
                    0.45184317231178284,
                    0.6408851146697998,
                    1,
                    0.25
                ],
                "metallicFactor" : 0,
                "roughnessFactor" : 0
            }
        }
    ],
    "meshes" : [
        {
            "name" : "Cylinder.057",
            "primitives" : [
                {
                    "attributes" : {
                        "POSITION" : 0,
                        "TEXCOORD_0" : 1,
                        "NORMAL" : 2
                    },
                    "indices" : 3,
                    "material" : 0
                },
                {
                    "attributes" : {
                        "POSITION" : 4,
                        "TEXCOORD_0" : 5,
                        "NORMAL" : 6
                    },
                    "indices" : 7,
                    "material" : 1
                },
                {
                    "attributes" : {
                        "POSITION" : 8,
                        "TEXCOORD_0" : 9,
                        "NORMAL" : 10
                    },
                    "indices" : 11,
                    "material" : 2
                }
            ]
        }
    ],
    "textures" : [
        {
            "sampler" : 0,
            "source" : 0
        },
        {
            "sampler" : 0,
            "source" : 1
        }
    ],
    "images" : [
        {
            "bufferView" : 4,
            "mimeType" : "image/jpeg",
            "name" : "CanMat_Base_Color"
        },
        {
            "bufferView" : 9,
            "mimeType" : "image/png",
            "name" : "3_11 dark_cherry"
        }
    ],
    "accessors" : [
        {
            "bufferView" : 0,
            "componentType" : 5126,
            "count" : 2727,
            "max" : [
                0.03267420083284378,
                0.038377441465854645,
                0.03464765101671219
            ],
            "min" : [
                -0.0326741524040699,
                -0.10998324304819107,
                -0.03070070594549179
            ],
            "type" : "VEC3"
        },
        {
            "bufferView" : 1,
            "componentType" : 5126,
            "count" : 2727,
            "type" : "VEC2"
        },
        {
            "bufferView" : 2,
            "componentType" : 5126,
            "count" : 2727,
            "type" : "VEC3"
        },
        {
            "bufferView" : 3,
            "componentType" : 5123,
            "count" : 15156,
            "type" : "SCALAR"
        },
        {
            "bufferView" : 5,
            "componentType" : 5126,
            "count" : 72,
            "max" : [
                0.032798051834106445,
                0.023892991244792938,
                0.034771502017974854
            ],
            "min" : [
                -0.032798003405332565,
                -0.10062345117330551,
                -0.030824556946754456
            ],
            "type" : "VEC3"
        },
        {
            "bufferView" : 6,
            "componentType" : 5126,
            "count" : 72,
            "type" : "VEC2"
        },
        {
            "bufferView" : 7,
            "componentType" : 5126,
            "count" : 72,
            "type" : "VEC3"
        },
        {
            "bufferView" : 8,
            "componentType" : 5123,
            "count" : 192,
            "type" : "SCALAR"
        },
        {
            "bufferView" : 10,
            "componentType" : 5126,
            "count" : 1064,
            "max" : [
                0.033826276659965515,
                0.03854186460375786,
                0.036250706762075424
            ],
            "min" : [
                -0.03390813618898392,
                -0.11050016433000565,
                -0.031095124781131744
            ],
            "type" : "VEC3"
        },
        {
            "bufferView" : 11,
            "componentType" : 5126,
            "count" : 1064,
            "type" : "VEC2"
        },
        {
            "bufferView" : 12,
            "componentType" : 5126,
            "count" : 1064,
            "type" : "VEC3"
        },
        {
            "bufferView" : 13,
            "componentType" : 5123,
            "count" : 4872,
            "type" : "SCALAR"
        }
    ],
    "bufferViews" : [
        {
            "buffer" : 0,
            "byteLength" : 32724,
            "byteOffset" : 0,
            "target" : 34962
        },
        {
            "buffer" : 0,
            "byteLength" : 21816,
            "byteOffset" : 32724,
            "target" : 34962
        },
        {
            "buffer" : 0,
            "byteLength" : 32724,
            "byteOffset" : 54540,
            "target" : 34962
        },
        {
            "buffer" : 0,
            "byteLength" : 30312,
            "byteOffset" : 87264,
            "target" : 34963
        },
        {
            "buffer" : 0,
            "byteLength" : 110428,
            "byteOffset" : 117576
        },
        {
            "buffer" : 0,
            "byteLength" : 864,
            "byteOffset" : 228004,
            "target" : 34962
        },
        {
            "buffer" : 0,
            "byteLength" : 576,
            "byteOffset" : 228868,
            "target" : 34962
        },
        {
            "buffer" : 0,
            "byteLength" : 864,
            "byteOffset" : 229444,
            "target" : 34962
        },
        {
            "buffer" : 0,
            "byteLength" : 384,
            "byteOffset" : 230308,
            "target" : 34963
        },
        {
            "buffer" : 0,
            "byteLength" : 453528,
            "byteOffset" : 230692
        },
        {
            "buffer" : 0,
            "byteLength" : 12768,
            "byteOffset" : 684220,
            "target" : 34962
        },
        {
            "buffer" : 0,
            "byteLength" : 8512,
            "byteOffset" : 696988,
            "target" : 34962
        },
        {
            "buffer" : 0,
            "byteLength" : 12768,
            "byteOffset" : 705500,
            "target" : 34962
        },
        {
            "buffer" : 0,
            "byteLength" : 9744,
            "byteOffset" : 718268,
            "target" : 34963
        }
    ],
    "samplers" : [
        {
            "magFilter" : 9729,
            "minFilter" : 9987
        }
    ],
    "buffers" : [
        {
            "byteLength" : 728012,
            "uri" : "data:application/octet-stream;base64,"
        }
    ]
}
